<?xml version="1.0" encoding="UTF-8"?>
<svg width="18px" height="18px" viewBox="0 0 18 18" version="1.1" xmlns="http://www.w3.org/2000/svg" xmlns:xlink="http://www.w3.org/1999/xlink">
    <title>icon_login_jump</title>
    <g id="页面-1" stroke="none" stroke-width="1" fill="none" fill-rule="evenodd">
        <g id="登录页" transform="translate(-280.000000, -183.000000)" fill-rule="nonzero">
            <g id="icon_login_jump" transform="translate(280.000000, 183.000000)">
                <rect id="矩形" fill="#000000" opacity="0" x="0" y="0" width="18" height="18"></rect>
                <path d="M15.4804062,3 C15.7681291,3 16,3.23190104 16,3.51966146 L16,3.51966146 L16,5.21575521 C16,5.28854167 15.9407629,5.34609375 15.8696784,5.34609375 L15.8696784,5.34609375 L14.9591199,5.34609375 C14.8880354,5.34609375 14.8287983,5.28684896 14.8287983,5.21575521 L14.8287983,5.21575521 L14.8287983,4.16966146 L4.16950918,4.16966146 L4.16950918,14.8303385 L14.8271058,14.8303385 L14.8271058,13.7842448 C14.8271058,13.713151 14.8863429,13.6539062 14.9574274,13.6539062 L14.9574274,13.6539062 L15.8679859,13.6539062 C15.9390704,13.6539062 15.9983075,13.7114583 15.9983075,13.7842448 L15.9983075,13.7842448 L15.9983075,15.4803385 C15.9983075,15.768099 15.7664367,16 15.4787137,16 L15.4787137,16 L3.5195938,16 C3.23187085,16 3,15.768099 3,15.4803385 L3,15.4803385 L3,3.51966146 C3,3.23190104 3.23187085,3 3.5195938,3 L3.5195938,3 Z M14.4152594,7.22505093 L14.4555251,7.25121575 L16.8064519,9.38916606 C16.8608286,9.43807834 16.8668385,9.51744089 16.8282482,9.57338524 L16.7910019,9.61011091 L14.165409,11.4000691 C14.0828373,11.4577309 13.9739767,11.4099857 13.9497324,11.3211818 L13.945175,11.2736562 L14.0352345,9.97610485 C12.8737793,9.98873234 11.6916261,10.31679 10.5238995,10.8898589 C9.93592125,11.1784128 9.39470549,11.5091029 8.91441882,11.8531011 L8.59697573,12.0890538 L8.38158468,12.2629106 C8.36355661,12.2782669 8.34753575,12.2922174 8.33356121,12.3046771 C8.06561324,12.5435791 7.65473013,12.5200327 7.4158281,12.2520848 C7.17692608,11.9841368 7.20047246,11.5732537 7.46842043,11.3343517 L7.60542368,11.2173503 L7.90176839,10.9841836 L8.15744545,10.796223 C8.69305636,10.4125996 9.29470936,10.0449816 9.95116826,9.72282039 C11.3182619,9.05191083 12.7228438,8.66950166 14.1264926,8.67450179 L14.2198411,7.34574774 C14.2268829,7.24504498 14.330512,7.18863988 14.4152594,7.22505093 Z" id="形状" fill="#DC0816"></path>
            </g>
        </g>
    </g>
</svg>