<?xml version="1.0" encoding="UTF-8"?>
<svg width="600px" height="300px" viewBox="0 0 600 300" version="1.1" xmlns="http://www.w3.org/2000/svg" xmlns:xlink="http://www.w3.org/1999/xlink">
    <title>login_header_bg</title>
    <defs>
        <linearGradient x1="4.8043873%" y1="38.6015714%" x2="50%" y2="62.5%" id="linearGradient-1">
            <stop stop-color="#F2F3F7" stop-opacity="0.456012006" offset="0%"></stop>
            <stop stop-color="#F2F3F7" stop-opacity="0.0411522072" offset="100%"></stop>
        </linearGradient>
        <rect id="path-2" x="0" y="0" width="600" height="300"></rect>
        <linearGradient x1="80.4703434%" y1="12.0611248%" x2="13.1969682%" y2="126.918946%" id="linearGradient-4">
            <stop stop-color="#DB0B17" stop-opacity="0.233835287" offset="0%"></stop>
            <stop stop-color="#FFFFFF" stop-opacity="0" offset="100%"></stop>
        </linearGradient>
    </defs>
    <g id="页面-1" stroke="none" stroke-width="1" fill="none" fill-rule="evenodd">
        <g id="登录页" transform="translate(0.000000, -27.000000)">
            <g id="login_header_bg" transform="translate(0.000000, 27.000000)">
                <mask id="mask-3" fill="white">
                    <use xlink:href="#path-2"></use>
                </mask>
                <use id="蒙版" fill="url(#linearGradient-1)" xlink:href="#path-2"></use>
                <path d="M403.774876,24 C407.650303,39.1669089 409.5091,54.7887599 411.652259,70.2672194 C422.099347,145.751107 427.350935,221.923273 438.434579,297.336768 C440.039014,308.257985 441.40474,319.188327 443.735736,329.784958 C435.995317,331.187588 427.825744,332.290399 419.181363,333.064713 C400.612966,334.725447 379.797056,334.174041 356.734937,331.414407 C355.163113,331.225391 353.636943,330.887769 352.168168,330.422399 C354.0374,321.6325 355.138329,312.549301 356.513186,303.62644 C362.876755,262.363366 367.275771,220.678472 371.653765,179.009625 L372.705075,169.009634 C374.28442,154.010782 375.881191,139.01855 377.586066,124.053367 C378.100482,119.535646 378.602211,115.014653 379.104121,110.493088 L379.606568,105.971433 C382.627331,78.8415564 385.809002,51.7235002 391.930756,25.2005778 C391.96728,25.0415436 391.99989,24.8812059 392.037719,24.7221717 C396.029239,24.4054068 399.945103,24.1603378 403.774876,24 Z M410.306306,24.0443238 C423.12814,23.8121366 435.010432,24.4891318 445.885794,26.1470527 C467.067608,29.3807158 484.986296,34.8971182 499.693694,42.6636493 C499.115713,46.7738843 498.574019,50.8867281 497.955865,54.9526128 C485.890848,134.128444 481.014301,214.230416 469.693143,293.635826 C468.191171,304.171646 466.715118,314.771382 464.592401,325.205457 C459.932272,326.584231 455.067388,327.820824 449.989973,328.906103 C448.678502,322.61357 447.689715,316.203638 446.654274,309.856318 C439.298056,264.787828 434.668141,219.292203 429.992471,173.806124 L429.086187,165.002604 C427.269498,147.39627 425.419154,129.795588 423.374365,112.225888 C422.9801,108.841449 422.590284,105.456179 422.199307,102.07109 L421.61127,96.9937183 C418.856491,73.3011285 415.907426,49.6421557 410.840225,26.3635868 C410.671756,25.5900643 410.489031,24.8165418 410.306306,24.0443238 Z M384.870871,26.1830986 C381.67393,39.6268808 380.033309,53.6998855 378.096988,67.5440821 C367.111962,146.090299 362.118769,223.476875 350.559202,300.28103 C349.194828,309.350155 348.066496,318.541485 346.211881,327.450704 C339.129328,322.761436 334.425351,314.523041 334.206169,305.070402 C333.608283,279.291777 333.958455,232.347093 340.133155,165.890009 C345.857818,104.2821 351.910606,68.1668044 355.975196,48.720707 C358.43029,36.983886 367.691692,28.1253683 378.875148,26.8097211 C380.903552,26.5718125 382.878781,26.3833058 384.870871,26.1830986 Z M506.683065,45.8309859 C515.297238,50.9784376 522.958656,56.710827 529.697501,63.0125557 C529.82086,63.8951617 529.93897,64.7803674 530.066267,65.6629734 C539.374666,130.536463 544.710624,195.239671 552.744745,259.808993 C552.672566,259.925981 552.613511,260.036469 552.538708,260.153456 C545.732934,270.969604 536.453406,281.577774 524.693564,291.984466 C512.931096,302.387258 498.431096,311.147025 481.187002,318.257267 C478.26443,319.460939 475.204062,320.567121 472.078078,321.629108 C472.349732,319.988683 472.621385,318.352157 472.910099,316.73253 C480.026974,276.919861 484.536784,236.629218 488.732445,196.271607 L489.516009,188.703871 C490.166845,182.396937 490.81351,176.088995 491.464751,169.781614 L492.248995,162.213125 C493.561597,149.599759 494.906497,136.991142 496.353669,124.399817 C496.58575,122.379632 496.815611,120.359109 497.044345,118.338425 L497.728262,112.276067 C500.23159,90.046953 502.731016,67.8198437 506.683065,45.8309859 Z M538.21021,72.028169 C540.18377,74.3598749 542.087028,76.7371474 543.845848,79.2042511 C553.189581,92.3091934 560.131552,105.621138 564.669206,119.136179 C569.203025,132.655126 572.270735,145.447612 573.873613,157.517543 C575.468822,169.591379 576.168004,179.187696 575.966047,186.306494 C575.762811,193.426595 575.059794,201.116928 574.0973,206.890862 C573.130972,212.671305 570.931168,220.411111 567.49789,230.107675 C565.12425,236.809864 561.93511,243.801076 558.039118,251.042254 C550.635713,171.38323 544.026076,111.711868 538.21021,72.028169 Z" id="形状结合备份" fill="url(#linearGradient-4)" opacity="0.400000006" mask="url(#mask-3)"></path>
            </g>
        </g>
    </g>
</svg>